<?xml version="1.0" encoding="UTF-8" standalone="no"?>
<svg
   xmlns:dc="http://purl.org/dc/elements/1.1/"
   xmlns:cc="http://creativecommons.org/ns#"
   xmlns:rdf="http://www.w3.org/1999/02/22-rdf-syntax-ns#"
   xmlns:svg="http://www.w3.org/2000/svg"
   xmlns="http://www.w3.org/2000/svg"
   viewBox="0 0 6803.9067 4531.5601"
   height="4531.5601"
   width="6803.9067"
   xml:space="preserve"
   id="svg10"
   version="1.1"><metadata
     id="metadata16"><rdf:RDF><cc:Work
         rdf:about=""><dc:format>image/svg+xml</dc:format><dc:type
           rdf:resource="http://purl.org/dc/dcmitype/StillImage" /><dc:title></dc:title></cc:Work></rdf:RDF></metadata><defs
     id="defs14" /><g
     transform="matrix(1.3333333,0,0,-1.3333333,0,4531.56)"
     id="g18"><g
       transform="scale(0.1)"
       id="g20"><g
         transform="scale(3.13014)"
         id="g22"><path
           id="path24"
           style="fill:#ffffff;fill-opacity:1;fill-rule:nonzero;stroke:none"
           d="M 16300,0 H 0.536617 V 10857.9 H 16300 V 0" /></g><g
         transform="scale(3.13061)"
         id="g26"><path
           id="path28"
           style="fill:#4cb8e2;fill-opacity:1;fill-rule:nonzero;stroke:none"
           d="M 16300.1,7886.25 H 0 V 9348.41 H 16300.1 V 7886.25" /></g><g
         transform="scale(3.13055)"
         id="g30"><path
           id="path32"
           style="fill:#4cb8e2;fill-opacity:1;fill-rule:nonzero;stroke:none"
           d="M 16300,1477.69 H 0.00124778 V 2939.88 H 16300 V 1477.69" /></g><g
         transform="scale(2.0782)"
         id="g34"><path
           id="path36"
           style="fill:#d92b27;fill-opacity:1;fill-rule:nonzero;stroke:none"
           d="m 14829.8,9934.77 296.8,-1231.72 1173.4,348.24 -875.7,-883 875.7,-884.46 -1173.4,348.25 -296.8,-1230.75 -297.3,1230.75 -1173.9,-348.25 876.2,884.46 -876.2,883 1173.9,-348.24 297.3,1231.72" /></g><g
         transform="scale(1.43061)"
         id="g38"><path
           id="path40"
           style="fill:#d92b27;fill-opacity:1;fill-rule:nonzero;stroke:none"
           d="m 14163.6,14408.5 431.8,-1789.3 1704.6,505.2 -1273.5,-1282.7 1273.5,-1282.7 -1704.6,503.8 -431.8,-1788.59 -432.5,1788.59 -1703.9,-503.8 1272.8,1282.7 -1272.8,1282.7 1703.9,-505.2 432.5,1789.3" /></g><g
         transform="scale(2.72531)"
         id="g42"><path
           id="path44"
           style="fill:#d92b27;fill-opacity:1;fill-rule:nonzero;stroke:none"
           d="m 15178.9,7590.22 226.3,-939.26 894.8,265.55 -667.8,-673.33 667.8,-674.44 -894.8,265.56 -226.3,-938.52 -226.7,938.52 -895.2,-265.56 668.2,674.44 -668.2,673.33 895.2,-265.55 226.7,939.26" /></g><g
         transform="scale(1.26308)"
         id="g46"><path
           id="path48"
           style="fill:#d92b27;fill-opacity:1;fill-rule:nonzero;stroke:none"
           d="m 7677.43,16300 489.07,-2026.6 1930.7,572.2 -1442.42,-1452.9 1442.42,-1452.8 -1930.7,570.6 -489.07,-2025.8 -489.88,2025.8 -1929.92,-570.6 1441.65,1452.8 -1441.65,1452.9 1929.92,-572.2 489.88,2026.6" /></g></g></g></svg>
